<svg xmlns="http://www.w3.org/2000/svg" viewBox="0 0 512 512" fill="none">
  <defs>
    <linearGradient id="bg" x1="74" y1="56" x2="438" y2="454" gradientUnits="userSpaceOnUse">
      <stop stop-color="#2D7E55"/>
      <stop offset="1" stop-color="#8DC26F"/>
    </linearGradient>
  </defs>
  <rect width="512" height="512" rx="128" fill="url(#bg)"/>
  <circle cx="256" cy="256" r="182" fill="#FFFFFF" fill-opacity=".1"/>
  <path d="M178 168c24 0 38 18 38 40 0 16-8 30-24 44l64 48 64-48c16-14 24-28 24-44 0-22-14-40-38-40-18 0-34 10-50 28-16-18-32-28-50-28Z" fill="#F0FFE8" fill-opacity=".82"/>
  <path d="M150 118l30 30M362 118l-30 30M140 196h44M328 196h44" stroke="#F0FFE8" stroke-width="12" stroke-linecap="round" stroke-opacity=".65"/>
  <text x="256" y="406" fill="#F7FFF2" font-family="Georgia, serif" font-size="182" font-weight="700" text-anchor="middle">T</text>
</svg>
